<mxfile host="app.diagrams.net" modified="2021-08-16T06:32:53.153Z" agent="5.0 (Macintosh; Intel Mac OS X 10_15_7) AppleWebKit/537.36 (KHTML, like Gecko) Chrome/92.0.4515.131 Safari/537.36" etag="aDr2hdlccZHM-JL5z5uh" version="14.9.6" type="github">
  <diagram id="XLw8N5wcadaK4jkEHxWs" name="Page-1">
    <mxGraphModel dx="1278" dy="704" grid="1" gridSize="10" guides="1" tooltips="1" connect="1" arrows="1" fold="1" page="1" pageScale="1" pageWidth="827" pageHeight="1169" math="0" shadow="0">
      <root>
        <mxCell id="0" />
        <mxCell id="1" parent="0" />
        <mxCell id="IWJUsnFvfsNe2zTftkBV-3" style="edgeStyle=orthogonalEdgeStyle;rounded=0;orthogonalLoop=1;jettySize=auto;html=1;entryX=0.5;entryY=0;entryDx=0;entryDy=0;" edge="1" parent="1" source="IWJUsnFvfsNe2zTftkBV-1" target="IWJUsnFvfsNe2zTftkBV-2">
          <mxGeometry relative="1" as="geometry" />
        </mxCell>
        <mxCell id="IWJUsnFvfsNe2zTftkBV-1" value="some stuff" style="rounded=0;whiteSpace=wrap;html=1;" vertex="1" parent="1">
          <mxGeometry x="330" y="70" width="120" height="60" as="geometry" />
        </mxCell>
        <mxCell id="IWJUsnFvfsNe2zTftkBV-4" style="edgeStyle=orthogonalEdgeStyle;rounded=0;orthogonalLoop=1;jettySize=auto;html=1;" edge="1" parent="1" source="IWJUsnFvfsNe2zTftkBV-2">
          <mxGeometry relative="1" as="geometry">
            <mxPoint x="480" y="320" as="targetPoint" />
          </mxGeometry>
        </mxCell>
        <mxCell id="IWJUsnFvfsNe2zTftkBV-7" style="edgeStyle=orthogonalEdgeStyle;rounded=0;orthogonalLoop=1;jettySize=auto;html=1;exitX=0;exitY=0.5;exitDx=0;exitDy=0;entryX=0.5;entryY=0;entryDx=0;entryDy=0;" edge="1" parent="1" source="IWJUsnFvfsNe2zTftkBV-2" target="IWJUsnFvfsNe2zTftkBV-6">
          <mxGeometry relative="1" as="geometry" />
        </mxCell>
        <mxCell id="IWJUsnFvfsNe2zTftkBV-2" value="is it good?" style="rhombus;whiteSpace=wrap;html=1;" vertex="1" parent="1">
          <mxGeometry x="350" y="200" width="80" height="80" as="geometry" />
        </mxCell>
        <mxCell id="IWJUsnFvfsNe2zTftkBV-5" value="it is good" style="rounded=0;whiteSpace=wrap;html=1;" vertex="1" parent="1">
          <mxGeometry x="420" y="320" width="120" height="60" as="geometry" />
        </mxCell>
        <mxCell id="IWJUsnFvfsNe2zTftkBV-6" value="it&#39;s not good" style="rounded=0;whiteSpace=wrap;html=1;" vertex="1" parent="1">
          <mxGeometry x="240" y="320" width="120" height="60" as="geometry" />
        </mxCell>
        <mxCell id="IWJUsnFvfsNe2zTftkBV-8" style="edgeStyle=orthogonalEdgeStyle;rounded=0;orthogonalLoop=1;jettySize=auto;html=1;exitX=0.5;exitY=1;exitDx=0;exitDy=0;" edge="1" parent="1" source="IWJUsnFvfsNe2zTftkBV-2" target="IWJUsnFvfsNe2zTftkBV-2">
          <mxGeometry relative="1" as="geometry" />
        </mxCell>
      </root>
    </mxGraphModel>
  </diagram>
</mxfile>
